<?xml version="1.0" encoding="UTF-8" standalone="no"?>
<svg width="50px" height="51px" viewBox="0 0 50 51" version="1.1" xmlns="http://www.w3.org/2000/svg" xmlns:xlink="http://www.w3.org/1999/xlink">
    <!-- Generator: Sketch 41.2 (35397) - http://www.bohemiancoding.com/sketch -->
    <title>body</title>
    <desc>Created with Sketch.</desc>
    <defs>
        <linearGradient x1="55.5262577%" y1="60.5494803%" x2="70.8435576%" y2="89.804549%" id="linearGradient-1">
            <stop stop-color="#4990E2" offset="0%"></stop>
            <stop stop-color="#74A4DC" offset="100%"></stop>
        </linearGradient>
        <linearGradient x1="55.5262577%" y1="56.5716043%" x2="70.8435576%" y2="74.79551%" id="linearGradient-2">
            <stop stop-color="#4990E2" offset="0%"></stop>
            <stop stop-color="#74A4DC" offset="100%"></stop>
        </linearGradient>
        <linearGradient x1="50%" y1="0%" x2="50%" y2="100%" id="linearGradient-3">
            <stop stop-color="#468430" offset="0%"></stop>
            <stop stop-color="#49C92E" offset="100%"></stop>
        </linearGradient>
        <path d="M19.3110525,0.68201493 C19.3110525,0.68201493 0.26102832,23.3456279 0.48105416,33.6081013 C0.70107999,43.8705747 20.3511226,49.1930986 20.3511226,49.1930986 C20.3511226,49.1930986 38.0162849,43.9922868 38.0162849,33.6081013 C38.0162849,23.2239158 19.3110525,0.68201493 19.3110525,0.68201493 Z" id="path-4"></path>
        <linearGradient x1="55.5262577%" y1="60.5494803%" x2="70.8435576%" y2="89.804549%" id="linearGradient-6">
            <stop stop-color="#F5A623" offset="0%"></stop>
            <stop stop-color="#74A4DC" offset="100%"></stop>
        </linearGradient>
        <linearGradient x1="55.5262577%" y1="55.3089982%" x2="70.8435576%" y2="70.0315344%" id="linearGradient-7">
            <stop stop-color="#F5A623" offset="0%"></stop>
            <stop stop-color="#74A4DC" offset="100%"></stop>
        </linearGradient>
    </defs>
    <g id="Page-1" stroke="none" stroke-width="1" fill="none" fill-rule="evenodd">
        <g id="gitte" transform="translate(-1.000000, 0.000000)">
            <g id="body">
                <polygon id="Star-Copy" fill="#F5A623" points="26.4762554 27.75 24.6046414 36.9050825 24.6142441 27.560652 20.9380376 36.1515762 22.8284637 27.0003598 17.4981691 34.6754124 21.1920244 26.0920618 14.4258645 32.5370253 19.7719221 24.872944 11.8469042 29.8239607 18.626296 23.3929171 9.8668714 26.6472918 17.8020482 21.7125736 8.56682868 23.1370718 17.3329234 19.9007069 8 19.4370096 17.2381277 18.0314952 8.18959138 15.6985861 17.521542 16.1814641 9.12784094 12.0748528 18.1715634 14.4263541 10.7763366 8.71416581 19.1615798 12.8380197 13.0675888 5.754112 20.4510599 11.4814874 15.9077934 3.31587634 21.9872122 10.4122938 19.1806721 1.49928049 23.7071465 9.67421188 22.7522328 0.378696087 25.5404484 9.29745876 26.4762554 0 27.4120624 9.29745876 30.200278 0.378696087 29.2453643 9.67421188 33.7718387 1.49928049 30.9652985 10.4122938 37.0447174 3.31587634 32.5014508 11.4814874 39.8849219 5.754112 33.7909309 12.8380197 42.1761741 8.71416581 34.7809474 14.4263541 43.8246698 12.0748528 35.4309687 16.1814641 44.7629194 15.6985861 35.7143831 18.0314952 44.9525108 19.4370096 35.6195874 19.9007069 44.3856821 23.1370718 35.1504626 21.7125736 43.0856394 26.6472918 34.3262148 23.3929171 41.1056065 29.8239607 33.1805887 24.872944 38.5266463 32.5370253 31.7604864 26.0920618 35.4543417 34.6754124 30.124047 27.0003598 32.0144732 36.1515762 28.3382667 27.560652 28.3478693 36.9050825"></polygon>
                <g id="Path-2" transform="translate(7.000000, 1.000000)" fill="url(#linearGradient-2)">
                    <path d="M19.3110525,0.68201493 C19.3110525,0.68201493 0.26102832,23.3456279 0.48105416,33.6081013 C0.70107999,43.8705747 20.3511226,49.1930986 20.3511226,49.1930986 C20.3511226,49.1930986 38.0162849,43.9922868 38.0162849,33.6081013 C38.0162849,23.2239158 19.3110525,0.68201493 19.3110525,0.68201493 Z" id="path-2"></path>
                </g>
                <g id="Star-Clipped" transform="translate(7.000000, 1.000000)">
                    <mask id="mask-5" fill="white">
                        <use xlink:href="#path-4"></use>
                    </mask>
                    <use id="path-2" fill="url(#linearGradient-3)" xlink:href="#path-4"></use>
                    <polygon id="Star" fill="#F5A623" mask="url(#mask-5)" points="19.4762554 14.75 17.6046414 23.9050825 17.6142441 14.560652 13.9380376 23.1515762 15.8284637 14.0003598 10.4981691 21.6754124 14.1920244 13.0920618 7.4258645 19.5370253 12.7719221 11.872944 4.8469042 16.8239607 11.626296 10.3929171 2.8668714 13.6472918 10.8020482 8.71257359 1.56682868 10.1370718 10.3329234 6.90070694 1 6.43700962 10.2381277 5.03149519 1.18959138 2.69858612 10.521542 3.18146408 2.12784094 -0.925147178 11.1715634 1.4263541 3.77633662 -4.28583419 12.1615798 -0.161980339 6.0675888 -7.245888 13.4510599 -1.51851264 8.9077934 -9.68412366 14.9872122 -2.5877062 12.1806721 -11.5007195 16.7071465 -3.32578812 15.7522328 -12.6213039 18.5404484 -3.70254124 19.4762554 -13 20.4120624 -3.70254124 23.200278 -12.6213039 22.2453643 -3.32578812 26.7718387 -11.5007195 23.9652985 -2.5877062 30.0447174 -9.68412366 25.5014508 -1.51851264 32.8849219 -7.245888 26.7909309 -0.161980339 35.1761741 -4.28583419 27.7809474 1.4263541 36.8246698 -0.925147178 28.4309687 3.18146408 37.7629194 2.69858612 28.7143831 5.03149519 37.9525108 6.43700962 28.6195874 6.90070694 37.3856821 10.1370718 28.1504626 8.71257359 36.0856394 13.6472918 27.3262148 10.3929171 34.1056065 16.8239607 26.1805887 11.872944 31.5266463 19.5370253 24.7604864 13.0920618 28.4543417 21.6754124 23.124047 14.0003598 25.0144732 23.1515762 21.3382667 14.560652 21.3478693 23.9050825"></polygon>
                </g>
                <polygon id="Path-3" fill="#48A92F" transform="translate(8.719481, 30.395564) scale(-1, 1) rotate(-90.000000) translate(-8.719481, -30.395564) " points="12.115045 24.6760832 11.0380766 33.4215092 5.32391759 36.115045 12.0389423 35.6158191"></polygon>
                <g id="Path-2-Copy" transform="translate(3.458142, 33.451095) rotate(182.000000) translate(-3.458142, -33.451095) translate(0.958142, 29.951095)" fill="url(#linearGradient-7)">
                    <path d="M2.48661219,0.0803494 C2.48661219,0.0803494 0.089617799,3.253057 0.11730284,4.6897135 C0.144987881,6.12637 2.61748038,6.8714768 2.61748038,6.8714768 C2.61748038,6.8714768 4.84022271,6.1434087 4.84022271,4.6897135 C4.84022271,3.2360184 2.48661219,0.0803494 2.48661219,0.0803494 Z" id="path-5"></path>
                </g>
                <polygon id="Path-3-Copy" fill="#48A82F" transform="translate(43.371049, 31.678369) rotate(-76.000000) translate(-43.371049, -31.678369) " points="46.7666123 25.958888 45.689644 34.704314 39.975485 37.3978498 46.6905097 36.8986239"></polygon>
                <g id="Path-2-Copy-2" transform="translate(48.458142, 36.451095) rotate(182.000000) translate(-48.458142, -36.451095) translate(45.958142, 32.951095)" fill="url(#linearGradient-7)">
                    <path d="M2.4866122,0.0803494 C2.4866122,0.0803494 0.0896178,3.253057 0.1173028,4.6897135 C0.1449879,6.12637 2.6174804,6.8714768 2.6174804,6.8714768 C2.6174804,6.8714768 4.8402227,6.1434087 4.8402227,4.6897135 C4.8402227,3.2360184 2.4866122,0.0803494 2.4866122,0.0803494 Z" id="path-7"></path>
                </g>
            </g>
        </g>
    </g>
</svg>