<?xml version="1.0" encoding="UTF-8" standalone="no"?>
<svg width="38px" height="51px" viewBox="0 0 38 51" version="1.1" xmlns="http://www.w3.org/2000/svg" xmlns:xlink="http://www.w3.org/1999/xlink">
    <!-- Generator: Sketch 41.2 (35397) - http://www.bohemiancoding.com/sketch -->
    <title>body</title>
    <desc>Created with Sketch.</desc>
    <defs>
        <path d="M19.3110525,1.68201493 C19.3110525,1.68201493 0.261028317,24.3456279 0.481054155,34.6081013 C0.701079993,44.8705747 20.3511226,50.1930986 20.3511226,50.1930986 C20.3511226,50.1930986 38.0162849,44.9922868 38.0162849,34.6081013 C38.0162849,24.2239158 19.3110525,1.68201493 19.3110525,1.68201493 Z" id="path-1"></path>
    </defs>
    <g id="Page-1" stroke="none" stroke-width="1" fill="none" fill-rule="evenodd">
        <g id="80---Spotlight" transform="translate(-18.000000, -12.000000)">
            <g id="body" transform="translate(18.000000, 12.000000)">
                <polygon id="Star-Copy" fill="#F5A623" points="19.4762554 27.75 17.6046414 36.9050825 17.6142441 27.560652 13.9380376 36.1515762 15.8284637 27.0003598 10.4981691 34.6754124 14.1920244 26.0920618 7.42586445 32.5370253 12.7719221 24.872944 4.84690425 29.8239607 11.626296 23.3929171 2.8668714 26.6472918 10.8020482 21.7125736 1.56682868 23.1370718 10.3329234 19.9007069 1 19.4370096 10.2381277 18.0314952 1.18959138 15.6985861 10.521542 16.1814641 2.12784094 12.0748528 11.1715634 14.4263541 3.77633662 8.71416581 12.1615798 12.8380197 6.06758882 5.754112 13.4510599 11.4814874 8.9077934 3.31587634 14.9872122 10.4122938 12.1806721 1.49928049 16.7071465 9.67421188 15.7522328 0.378696087 18.5404484 9.29745876 19.4762554 0 20.4120624 9.29745876 23.200278 0.378696087 22.2453643 9.67421188 26.7718387 1.49928049 23.9652985 10.4122938 30.0447174 3.31587634 25.5014508 11.4814874 32.8849219 5.754112 26.7909309 12.8380197 35.1761741 8.71416581 27.7809474 14.4263541 36.8246698 12.0748528 28.4309687 16.1814641 37.7629194 15.6985861 28.7143831 18.0314952 37.9525108 19.4370096 28.6195874 19.9007069 37.3856821 23.1370718 28.1504626 21.7125736 36.0856394 26.6472918 27.3262148 23.3929171 34.1056065 29.8239607 26.1805887 24.872944 31.5266463 32.5370253 24.7604864 26.0920618 28.4543417 34.6754124 23.124047 27.0003598 25.0144732 36.1515762 21.3382667 27.560652 21.3478693 36.9050825"></polygon>
                <mask id="mask-2" fill="white">
                    <use xlink:href="#path-1"></use>
                </mask>
                <use id="Path-2" fill="#4990E2" xlink:href="#path-1"></use>
                <polygon id="Star" fill="#F5A623" mask="url(#mask-2)" points="19.4762554 15.75 17.6046414 24.9050825 17.6142441 15.560652 13.9380376 24.1515762 15.8284637 15.0003598 10.4981691 22.6754124 14.1920244 14.0920618 7.42586445 20.5370253 12.7719221 12.872944 4.84690425 17.8239607 11.626296 11.3929171 2.8668714 14.6472918 10.8020482 9.71257359 1.56682868 11.1370718 10.3329234 7.90070694 1 7.43700962 10.2381277 6.03149519 1.18959138 3.69858612 10.521542 4.18146408 2.12784094 0.0748528224 11.1715634 2.4263541 3.77633662 -3.28583419 12.1615798 0.838019661 6.06758882 -6.245888 13.4510599 -0.518512635 8.9077934 -8.68412366 14.9872122 -1.5877062 12.1806721 -10.5007195 16.7071465 -2.32578812 15.7522328 -11.6213039 18.5404484 -2.70254124 19.4762554 -12 20.4120624 -2.70254124 23.200278 -11.6213039 22.2453643 -2.32578812 26.7718387 -10.5007195 23.9652985 -1.5877062 30.0447174 -8.68412366 25.5014508 -0.518512635 32.8849219 -6.245888 26.7909309 0.838019661 35.1761741 -3.28583419 27.7809474 2.4263541 36.8246698 0.0748528224 28.4309687 4.18146408 37.7629194 3.69858612 28.7143831 6.03149519 37.9525108 7.43700962 28.6195874 7.90070694 37.3856821 11.1370718 28.1504626 9.71257359 36.0856394 14.6472918 27.3262148 11.3929171 34.1056065 17.8239607 26.1805887 12.872944 31.5266463 20.5370253 24.7604864 14.0920618 28.4543417 22.6754124 23.124047 15.0003598 25.0144732 24.1515762 21.3382667 15.560652 21.3478693 24.9050825"></polygon>
            </g>
        </g>
    </g>
</svg>