<?xml version="1.0" encoding="UTF-8" standalone="no"?>
<svg width="50px" height="51px" viewBox="0 0 50 51" version="1.1" xmlns="http://www.w3.org/2000/svg" xmlns:xlink="http://www.w3.org/1999/xlink">
    <!-- Generator: Sketch 41.2 (35397) - http://www.bohemiancoding.com/sketch -->
    <title>body</title>
    <desc>Created with Sketch.</desc>
    <defs>
        <linearGradient x1="55.5262577%" y1="60.9756793%" x2="70.8435576%" y2="91.4126528%" id="linearGradient-1">
            <stop stop-color="#4990E2" offset="0%"></stop>
            <stop stop-color="#74A4DC" offset="100%"></stop>
        </linearGradient>
        <path d="M25.3110525,1.68201493 C25.3110525,1.68201493 6.26102832,24.3456279 6.48105416,34.6081013 C6.70107999,44.8705747 26.3511226,50.1930986 26.3511226,50.1930986 C26.3511226,50.1930986 44.0162849,44.9922868 44.0162849,34.6081013 C44.0162849,24.2239158 25.3110525,1.68201493 25.3110525,1.68201493 Z" id="path-2"></path>
        <linearGradient x1="55.5262577%" y1="60.9756793%" x2="70.8435576%" y2="91.4126528%" id="linearGradient-4">
            <stop stop-color="#F5A623" offset="0%"></stop>
            <stop stop-color="#74A4DC" offset="100%"></stop>
        </linearGradient>
        <path d="M2.48661219,30.0803494 C2.48661219,30.0803494 0.089617799,33.253057 0.11730284,34.6897135 C0.144987881,36.12637 2.61748038,36.8714768 2.61748038,36.8714768 C2.61748038,36.8714768 4.84022271,36.1434087 4.84022271,34.6897135 C4.84022271,33.2360184 2.48661219,30.0803494 2.48661219,30.0803494 Z" id="path-5"></path>
        <path d="M47.4866122,33.0803494 C47.4866122,33.0803494 45.0896178,36.253057 45.1173028,37.6897135 C45.1449879,39.12637 47.6174804,39.8714768 47.6174804,39.8714768 C47.6174804,39.8714768 49.8402227,39.1434087 49.8402227,37.6897135 C49.8402227,36.2360184 47.4866122,33.0803494 47.4866122,33.0803494 Z" id="path-7"></path>
    </defs>
    <g id="Page-1" stroke="none" stroke-width="1" fill="none" fill-rule="evenodd">
        <g id="80---Spotlight" transform="translate(-12.000000, -12.000000)">
            <g id="body" transform="translate(12.000000, 12.000000)">
                <polygon id="Star-Copy" fill="#F5A623" points="25.4762554 27.75 23.6046414 36.9050825 23.6142441 27.560652 19.9380376 36.1515762 21.8284637 27.0003598 16.4981691 34.6754124 20.1920244 26.0920618 13.4258645 32.5370253 18.7719221 24.872944 10.8469042 29.8239607 17.626296 23.3929171 8.8668714 26.6472918 16.8020482 21.7125736 7.56682868 23.1370718 16.3329234 19.9007069 7 19.4370096 16.2381277 18.0314952 7.18959138 15.6985861 16.521542 16.1814641 8.12784094 12.0748528 17.1715634 14.4263541 9.77633662 8.71416581 18.1615798 12.8380197 12.0675888 5.754112 19.4510599 11.4814874 14.9077934 3.31587634 20.9872122 10.4122938 18.1806721 1.49928049 22.7071465 9.67421188 21.7522328 0.378696087 24.5404484 9.29745876 25.4762554 0 26.4120624 9.29745876 29.200278 0.378696087 28.2453643 9.67421188 32.7718387 1.49928049 29.9652985 10.4122938 36.0447174 3.31587634 31.5014508 11.4814874 38.8849219 5.754112 32.7909309 12.8380197 41.1761741 8.71416581 33.7809474 14.4263541 42.8246698 12.0748528 34.4309687 16.1814641 43.7629194 15.6985861 34.7143831 18.0314952 43.9525108 19.4370096 34.6195874 19.9007069 43.3856821 23.1370718 34.1504626 21.7125736 42.0856394 26.6472918 33.3262148 23.3929171 40.1056065 29.8239607 32.1805887 24.872944 37.5266463 32.5370253 30.7604864 26.0920618 34.4543417 34.6754124 29.124047 27.0003598 31.0144732 36.1515762 27.3382667 27.560652 27.3478693 36.9050825"></polygon>
                <mask id="mask-3" fill="white">
                    <use xlink:href="#path-2"></use>
                </mask>
                <use id="Path-2" fill="url(#linearGradient-1)" xlink:href="#path-2"></use>
                <polygon id="Star" fill="#F5A623" mask="url(#mask-3)" points="25.4762554 15.75 23.6046414 24.9050825 23.6142441 15.560652 19.9380376 24.1515762 21.8284637 15.0003598 16.4981691 22.6754124 20.1920244 14.0920618 13.4258645 20.5370253 18.7719221 12.872944 10.8469042 17.8239607 17.626296 11.3929171 8.8668714 14.6472918 16.8020482 9.71257359 7.56682868 11.1370718 16.3329234 7.90070694 7 7.43700962 16.2381277 6.03149519 7.18959138 3.69858612 16.521542 4.18146408 8.12784094 0.0748528224 17.1715634 2.4263541 9.77633662 -3.28583419 18.1615798 0.838019661 12.0675888 -6.245888 19.4510599 -0.518512635 14.9077934 -8.68412366 20.9872122 -1.5877062 18.1806721 -10.5007195 22.7071465 -2.32578812 21.7522328 -11.6213039 24.5404484 -2.70254124 25.4762554 -12 26.4120624 -2.70254124 29.200278 -11.6213039 28.2453643 -2.32578812 32.7718387 -10.5007195 29.9652985 -1.5877062 36.0447174 -8.68412366 31.5014508 -0.518512635 38.8849219 -6.245888 32.7909309 0.838019661 41.1761741 -3.28583419 33.7809474 2.4263541 42.8246698 0.0748528224 34.4309687 4.18146408 43.7629194 3.69858612 34.7143831 6.03149519 43.9525108 7.43700962 34.6195874 7.90070694 43.3856821 11.1370718 34.1504626 9.71257359 42.0856394 14.6472918 33.3262148 11.3929171 40.1056065 17.8239607 32.1805887 12.872944 37.5266463 20.5370253 30.7604864 14.0920618 34.4543417 22.6754124 29.124047 15.0003598 31.0144732 24.1515762 27.3382667 15.560652 27.3478693 24.9050825"></polygon>
                <polygon id="Path-3" fill="#4990E2" transform="translate(7.719481, 30.395564) scale(1, -1) rotate(90.000000) translate(-7.719481, -30.395564) " points="11.1150446 24.6760828 10.0380762 33.4215088 4.32391718 36.1150446 11.0389419 35.6158187"></polygon>
                <mask id="mask-6" fill="white">
                    <use xlink:href="#path-5"></use>
                </mask>
                <use id="Path-2-Copy" fill="url(#linearGradient-4)" transform="translate(2.478644, 33.475913) rotate(-178.000000) translate(-2.478644, -33.475913) " xlink:href="#path-5"></use>
                <polygon id="Path-3-Copy" fill="#5897E0" transform="translate(42.371049, 31.678369) rotate(-76.000000) translate(-42.371049, -31.678369) " points="45.7666127 25.9588877 44.6896444 34.7043137 38.9754854 37.3978495 45.6905101 36.8986236"></polygon>
                <mask id="mask-8" fill="white">
                    <use xlink:href="#path-7"></use>
                </mask>
                <use id="Path-2-Copy-2" fill="url(#linearGradient-4)" transform="translate(47.478644, 36.475913) rotate(-178.000000) translate(-47.478644, -36.475913) " xlink:href="#path-7"></use>
            </g>
        </g>
    </g>
</svg>